<?xml version="1.0" encoding="UTF-8" standalone="no"?>
<!DOCTYPE svg PUBLIC "-//W3C//DTD SVG 1.1//EN" "http://www.w3.org/Graphics/SVG/1.1/DTD/svg11.dtd">
<svg width="100%" height="100%" viewBox="0 0 512 512" version="1.1" xmlns="http://www.w3.org/2000/svg" xmlns:xlink="http://www.w3.org/1999/xlink" xml:space="preserve" xmlns:serif="http://www.serif.com/" style="fill-rule:evenodd;clip-rule:evenodd;stroke-linejoin:round;stroke-miterlimit:2;">
    <g>
        <g>
            <g>
                <g>
                    <path d="M256.4,110.4C183.9,110.4 124.7,169.6 124.7,242.1C124.7,280 141.3,316.5 169.2,341.1C190,361.9 188.1,406.5 187.7,406.9C187.7,409.3 188.2,411.2 190.1,413.1C191.5,414.5 193.9,415.5 195.8,415.5L316.6,415.5C319,415.5 320.9,414.6 322.3,413.1C323.7,411.7 324.7,409.3 324.7,406.9C324.7,406.4 322.3,361.9 343.2,341.1C343.7,340.6 344.1,340.2 344.6,339.7C372.1,314.6 388.2,279.1 388.2,242.1C388.1,169.6 328.9,110.4 256.4,110.4ZM332.2,328.7C331.7,329.2 330.8,330.1 330.8,330.6C312.3,350.5 309,383.2 308.5,398.8L203.8,398.8C203.3,383.2 200,349.1 180.1,328.7C155,306.9 140.3,275.2 140.3,241.6C140.3,177.7 191.9,126 255.9,126C319.9,126 371.5,177.6 371.5,241.6C371.5,275.2 357.3,306.9 332.2,328.7Z" style="fill:rgb(252,163,17);fill-rule:nonzero;"/>
                    <path d="M255.9,144C251.6,144 247.8,147.8 247.8,152.1C247.8,156.4 251.6,160.2 255.9,160.2C303.7,160.2 342.1,199 342.1,246.4C342.1,250.7 345.9,254.5 350.2,254.5C354.5,254.5 358.3,250.7 358.3,246.4C358.7,189.9 312.8,144 255.9,144Z" style="fill:rgb(252,163,17);fill-rule:nonzero;"/>
                    <path d="M308.5,424.4L203.3,424.4C192.4,424.4 183.4,433.4 183.4,444.3C183.4,455.2 192.4,464.2 203.3,464.2L308,464.2C319.4,463.7 328.4,455.2 328.4,444.3C328.4,433.4 319.4,424.4 308.5,424.4ZM308.5,447.6L203.3,447.6C201.4,447.6 199.5,446.2 199.5,443.8C199.5,441.4 200.9,440 203.3,440L308,440C309.9,440 311.8,441.4 311.8,443.8C311.8,446.2 310.4,447.6 308.5,447.6Z" style="fill:rgb(252,163,17);fill-rule:nonzero;"/>
                    <path d="M292.9,472.2L219,472.2C208.1,472.2 199.1,481.2 199.1,492.1C199.1,503 208.1,512 219,512L292.9,512C303.8,512 312.8,503 312.8,492.1C312.8,480.7 303.8,472.2 292.9,472.2ZM292.9,495.4L219,495.4C217.1,495.4 215.2,494 215.2,491.6C215.2,489.2 216.6,487.8 219,487.8L292.9,487.8C294.8,487.8 296.7,489.2 296.7,491.6C296.6,494 294.8,495.4 292.9,495.4Z" style="fill:rgb(252,163,17);fill-rule:nonzero;"/>
                    <path d="M255.9,71C260.6,71 264,67.2 264,62.9L264,8.1C264,3.8 260.2,0 255.9,0C251.6,0 247.8,3.8 247.8,8.1L247.8,63C247.9,67.3 251.7,71 255.9,71Z" style="fill:rgb(252,163,17);fill-rule:nonzero;"/>
                    <path d="M390,40.7C386.2,37.9 381.5,39.3 379.1,42.6L348.8,88.1C346,91.9 346.9,97.1 350.7,99.5C352.1,100.4 353.5,100.9 355,100.9C357.8,100.9 360.2,99.5 361.6,97.1L391.9,51.6C394.7,48.3 393.7,43.1 390,40.7Z" style="fill:rgb(252,163,17);fill-rule:nonzero;"/>
                    <path d="M159.8,99C161.2,99 162.6,98.5 164.1,97.6C167.9,95.2 168.8,90 166.5,86.2L137,40.3C134.6,36.5 129.4,35.6 125.6,37.9C121.8,40.3 120.9,45.5 123.2,49.3L152.6,95.2C154.6,98 156.9,99 159.8,99Z" style="fill:rgb(252,163,17);fill-rule:nonzero;"/>
                    <path d="M102.5,149.2L54.7,123.2C50.9,121.3 45.7,122.7 43.8,126.5C41.4,130.3 42.9,135.5 47.1,137.4L94.9,163.4C96.3,163.9 97.3,164.3 98.7,164.3C101.5,164.3 104.4,162.9 105.8,160C107.7,156.3 106.2,151.1 102.5,149.2Z" style="fill:rgb(252,163,17);fill-rule:nonzero;"/>
                    <path d="M468.6,126.5C466.7,122.7 461.5,121.3 457.7,123.2L409.4,149.2C405.6,151.1 404.2,156.3 406.1,160.1C407.5,162.9 410.4,164.4 413.2,164.4C414.6,164.4 416,163.9 417,163.5L465.3,137.5C469.1,135.5 470.5,130.2 468.6,126.5Z" style="fill:rgb(252,163,17);fill-rule:nonzero;"/>
                </g>
            </g>
        </g>
    </g>
    <path d="M209.251,285.567L233.051,316.567C235.573,319.852 240.28,320.471 243.565,317.951L307.565,268.851C310.849,266.331 311.47,261.619 308.951,258.335C306.431,255.051 301.719,254.43 298.435,256.949L240.383,301.486C240.383,301.486 221.149,276.433 221.149,276.433C218.628,273.149 213.916,272.53 210.633,275.051C207.349,277.572 206.73,282.284 209.251,285.567Z" style="fill:rgb(252,163,17);"/>
</svg>
