<?xml version="1.0" encoding="UTF-8" standalone="no"?>
<!DOCTYPE svg PUBLIC "-//W3C//DTD SVG 1.1//EN" "http://www.w3.org/Graphics/SVG/1.1/DTD/svg11.dtd">
<svg width="100%" height="100%" viewBox="0 0 432 432" version="1.1" xmlns="http://www.w3.org/2000/svg" xmlns:xlink="http://www.w3.org/1999/xlink" xml:space="preserve" xmlns:serif="http://www.serif.com/" style="fill-rule:evenodd;clip-rule:evenodd;stroke-linejoin:round;stroke-miterlimit:2;">
    <g>
        <g>
            <g>
                <path d="M358.4,68L295.2,68L295.2,49.6C295.2,44.8 292,41.6 287.2,41.6L264,41.6C260,17.6 240,0 216,0C192,0 172,17.6 168,40.8L144.8,40.8C140,40.8 136.8,44 136.8,48.8L136.8,67.2L73.6,67.2C64,67.2 56.8,74.4 56.8,84L56.8,414.4C56.8,424 64,432 73.6,432L358.4,432C368,432 375.2,424.8 375.2,415.2L375.2,84.8C375.2,75.2 368,68 358.4,68ZM216,16C231.2,16 244,26.4 248,40.8L184,40.8C188,27.2 200.8,16 216,16ZM152.8,56.8L280,56.8L280,93.6L152.8,93.6L152.8,56.8ZM360,415.2C360,416 360,416 359.2,416L73.6,416C72.8,416 72.8,416 72.8,415.2L72.8,84.8C72.8,84 72.8,84 73.6,84L136.8,84L136.8,102.4C136.8,107.2 140,110.4 144.8,110.4L288,110.4C292.8,110.4 296,107.2 296,102.4L296,84L359.2,84C360,84 360,84 360,84.8L360,415.2Z" style="fill:rgb(68,208,124);fill-rule:nonzero;"/>
            </g>
        </g>
        <g>
            <g>
                <path d="M158.4,154.4L100,154.4C95.2,154.4 92,157.6 92,162.4L92,220.8C92,225.6 96,228.8 100,228.8L158.4,228.8C163.2,228.8 166.4,225.6 166.4,220.8L166.4,162.4C166.4,157.6 163.2,154.4 158.4,154.4ZM150.4,212.8L108,212.8L108,170.4L150.4,170.4L150.4,212.8Z" style="fill:rgb(68,208,124);fill-rule:nonzero;"/>
            </g>
        </g>
        <g>
            <g>
                <path d="M158.4,270.4L100,270.4C95.2,270.4 92,273.6 92,278.4L92,336.8C92,341.6 96,344.8 100,344.8L158.4,344.8C163.2,344.8 166.4,341.6 166.4,336.8L166.4,278.4C166.4,273.6 163.2,270.4 158.4,270.4ZM150.4,328.8L108,328.8L108,286.4L150.4,286.4L150.4,328.8Z" style="fill:rgb(68,208,124);fill-rule:nonzero;"/>
            </g>
        </g>
        <g>
            <g>
                <path d="M288,164.8L189.6,164.8C184.8,164.8 181.6,168 181.6,172.8C181.6,177.6 184.8,180.8 189.6,180.8L288,180.8C292.8,180.8 296,177.6 296,172.8C296,168 292.8,164.8 288,164.8Z" style="fill:rgb(68,208,124);fill-rule:nonzero;"/>
            </g>
        </g>
        <g>
            <g>
                <path d="M304.8,203.2L189.6,203.2C184.8,203.2 181.6,206.4 181.6,211.2C181.6,216 184.8,219.2 189.6,219.2L304.8,219.2C309.6,219.2 312.8,216 312.8,211.2C312.8,206.4 309.6,203.2 304.8,203.2Z" style="fill:rgb(68,208,124);fill-rule:nonzero;"/>
            </g>
        </g>
        <g>
            <g>
                <path d="M288,280.8L189.6,280.8C184.8,280.8 181.6,284 181.6,288.8C181.6,293.6 184.8,296.8 189.6,296.8L288,296.8C292.8,296.8 296,293.6 296,288.8C296,284 292.8,280.8 288,280.8Z" style="fill:rgb(68,208,124);fill-rule:nonzero;"/>
            </g>
        </g>
        <g>
            <g>
                <path d="M304.8,319.2L189.6,319.2C184.8,319.2 181.6,322.4 181.6,327.2C181.6,332 184.8,335.2 189.6,335.2L304.8,335.2C309.6,335.2 312.8,332 312.8,327.2C312.8,322.4 309.6,319.2 304.8,319.2Z" style="fill:rgb(68,208,124);fill-rule:nonzero;"/>
            </g>
        </g>
    </g>
</svg>
